# xmcd CD database file
#
# Track frame offsets:
#	150
#	19886
#	40491
#	62299
#	86943
#	106402
#	127218
#	149127
#	169736
#	191098
#	213248
#	233205
#	253135
#
# Disc length: 3633 seconds
#
# Revision: 6
# Processed by: cddbd v1.5.2PL0 Copyright (c) Steve Scherf et al.
# Submitted via: CDex 1.51
#
DISCID=c80e2f0d
DTITLE=Ricardo Lemvo - Shall we Salsa
DYEAR=2007
DGENRE=Salsa
TTITLE0=Bachata - Sani
TTITLE1=Ay Valeria
TTITLE2=Yembe
TTITLE3=Dos Mulatas
TTITLE4=Samba Luku Samba
TTITLE5=Kidia M'Fuka
TTITLE6=Yiri Yiri Bon
TTITLE7=Mama Kiyelele
TTITLE8=Tata Masamba
TTITLE9=Africa Havana Paris
TTITLE10=Amame Mama (Club Remix)
TTITLE11=Ay Valeria (Afro-Portuguese Version)
TTITLE12=Merengue - Amame Mama
EXTD=YEAR: 2007
EXTT0=
EXTT1=
EXTT2=
EXTT3=
EXTT4=
EXTT5=
EXTT6=
EXTT7=
EXTT8=
EXTT9=
EXTT10=
EXTT11=
EXTT12=
PLAYORDER=
